<svg version="1.1" id="Layer_1" xmlns="http://www.w3.org/2000/svg" xmlns:xlink="http://www.w3.org/1999/xlink" x="0px" y="0px"
	 width="100%" viewBox="0 0 1004 591" enable-background="new 0 0 1004 591" xml:space="preserve">
<path fill="#FFDE59" opacity="1.000000" stroke="none" 
	d="
M571.000000,592.000000 
	C380.666656,592.000000 190.833328,592.000000 1.000000,592.000000 
	C1.000000,395.000000 1.000000,198.000000 1.000000,1.000000 
	C335.666656,1.000000 670.333313,1.000000 1005.000000,1.000000 
	C1005.000000,198.000000 1005.000000,395.000000 1005.000000,592.000000 
	C860.500000,592.000000 716.000000,592.000000 571.000000,592.000000 
M420.899811,291.061584 
	C420.932434,306.227509 420.799133,321.396027 421.038696,336.558685 
	C421.354248,356.531647 429.610352,372.630615 445.739594,384.430420 
	C476.393951,406.856598 529.140564,406.859436 559.861145,384.518707 
	C576.024231,372.764496 584.757874,356.759521 584.898682,336.820557 
	C585.215149,291.989563 585.023132,247.154800 584.992615,202.321609 
	C584.987488,194.849792 582.574707,192.443726 575.082642,192.364914 
	C566.083618,192.270233 557.082886,192.325211 548.082947,192.345673 
	C538.428467,192.367630 536.218445,194.527023 536.213745,204.021805 
	C536.198425,234.855087 536.216187,265.688354 536.202576,296.521637 
	C536.197510,307.854492 536.360046,319.193390 536.046814,330.518524 
	C535.713257,342.582794 528.407043,352.239716 516.945618,355.972198 
	C507.501831,359.047729 497.871338,359.122894 488.452606,355.892853 
	C476.977875,351.957733 470.621765,343.447510 470.090179,331.580597 
	C469.457092,317.447174 469.967499,303.262543 470.722321,288.978302 
	C512.840271,272.947235 533.043091,226.631058 515.912231,185.377808 
	C498.829681,144.240952 451.438232,125.612366 410.638153,144.323273 
	C390.443176,153.584702 376.415558,169.020111 369.296173,190.068008 
	C360.649567,215.631088 365.331909,239.541809 380.309631,262.034912 
	C367.354889,274.947906 354.498962,287.746948 341.663971,300.566986 
	C338.482910,303.744293 335.209930,306.850861 332.268219,310.240753 
	C329.019562,313.984344 328.665070,318.384705 330.666870,322.861328 
	C332.618744,327.226379 336.387360,330.092285 340.865814,329.497528 
	C344.650787,328.994904 348.890259,327.032104 351.633667,324.377411 
	C367.067719,309.442352 382.110107,294.102539 396.594757,279.593292 
	C405.060669,283.285767 412.927826,286.717041 420.899811,291.061584 
z"/>
<path fill="#FFFFFE" opacity="1.000000" stroke="none" 
	d="
M469.982452,289.100098 
	C469.967499,303.262543 469.457092,317.447174 470.090179,331.580597 
	C470.621765,343.447510 476.977875,351.957733 488.452606,355.892853 
	C497.871338,359.122894 507.501831,359.047729 516.945618,355.972198 
	C528.407043,352.239716 535.713257,342.582794 536.046814,330.518524 
	C536.360046,319.193390 536.197510,307.854492 536.202576,296.521637 
	C536.216187,265.688354 536.198425,234.855087 536.213745,204.021805 
	C536.218445,194.527023 538.428467,192.367630 548.082947,192.345673 
	C557.082886,192.325211 566.083618,192.270233 575.082642,192.364914 
	C582.574707,192.443726 584.987488,194.849792 584.992615,202.321609 
	C585.023132,247.154800 585.215149,291.989563 584.898682,336.820557 
	C584.757874,356.759521 576.024231,372.764496 559.861145,384.518707 
	C529.140564,406.859436 476.393951,406.856598 445.739594,384.430420 
	C429.610352,372.630615 421.354248,356.531647 421.038696,336.558685 
	C420.799133,321.396027 420.932434,306.227509 420.920654,290.129272 
	C420.892548,281.018738 420.843567,272.840576 420.853943,264.149353 
	C420.935638,243.180984 420.935120,222.725571 420.992188,202.270325 
	C421.012939,194.836166 423.373657,192.448441 430.884796,192.367966 
	C439.698029,192.273514 448.513062,192.336517 457.327301,192.346390 
	C467.783600,192.358109 469.742554,194.349106 469.779449,204.955002 
	C469.846558,224.243332 469.913788,243.531677 469.894226,263.293457 
	C469.865814,272.211334 469.924133,280.655701 469.982452,289.100098 
z"/>
<path fill="#0EC0DE" opacity="1.000000" stroke="none" 
	d="
M470.352386,289.039185 
	C469.924133,280.655701 469.865814,272.211334 470.198090,263.158752 
	C491.752350,249.486679 501.748108,227.106018 496.654175,204.189301 
	C491.591003,181.410980 473.121399,164.602585 449.937042,161.674042 
	C423.787323,158.370911 398.489624,175.298553 391.209351,200.970963 
	C384.023041,226.312027 396.718903,253.643784 420.794556,264.662384 
	C420.843567,272.840576 420.892548,281.018738 420.868256,289.672638 
	C412.927826,286.717041 405.060669,283.285767 396.594757,279.593292 
	C382.110107,294.102539 367.067719,309.442352 351.633667,324.377411 
	C348.890259,327.032104 344.650787,328.994904 340.865814,329.497528 
	C336.387360,330.092285 332.618744,327.226379 330.666870,322.861328 
	C328.665070,318.384705 329.019562,313.984344 332.268219,310.240753 
	C335.209930,306.850861 338.482910,303.744293 341.663971,300.566986 
	C354.498962,287.746948 367.354889,274.947906 380.309631,262.034912 
	C365.331909,239.541809 360.649567,215.631088 369.296173,190.068008 
	C376.415558,169.020111 390.443176,153.584702 410.638153,144.323273 
	C451.438232,125.612366 498.829681,144.240952 515.912231,185.377808 
	C533.043091,226.631058 512.840271,272.947235 470.352386,289.039185 
z"/>
<path fill="#FDDE5A" opacity="1.000000" stroke="none" 
	d="
M420.853943,264.149353 
	C396.718903,253.643784 384.023041,226.312027 391.209351,200.970963 
	C398.489624,175.298553 423.787323,158.370911 449.937042,161.674042 
	C473.121399,164.602585 491.591003,181.410980 496.654175,204.189301 
	C501.748108,227.106018 491.752350,249.486679 470.284790,262.685303 
	C469.913788,243.531677 469.846558,224.243332 469.779449,204.955002 
	C469.742554,194.349106 467.783600,192.358109 457.327301,192.346390 
	C448.513062,192.336517 439.698029,192.273514 430.884796,192.367966 
	C423.373657,192.448441 421.012939,194.836166 420.992188,202.270325 
	C420.935120,222.725571 420.935638,243.180984 420.853943,264.149353 
z"/>
</svg>