<svg version="1.1" id="Layer_1" xmlns="http://www.w3.org/2000/svg" xmlns:xlink="http://www.w3.org/1999/xlink" x="0px" y="0px"
	 width="100%" viewBox="0 0 1004 591" enable-background="new 0 0 1004 591" xml:space="preserve">
<path fill="#0CC0DF" opacity="1.000000" stroke="none" 
	d="
M571.000000,592.000000 
	C380.666656,592.000000 190.833328,592.000000 1.000000,592.000000 
	C1.000000,395.000000 1.000000,198.000000 1.000000,1.000000 
	C335.666656,1.000000 670.333313,1.000000 1005.000000,1.000000 
	C1005.000000,198.000000 1005.000000,395.000000 1005.000000,592.000000 
	C860.500000,592.000000 716.000000,592.000000 571.000000,592.000000 
M420.899139,291.064087 
	C420.928223,305.722260 420.879730,320.381134 421.003845,335.038483 
	C421.207825,359.127289 431.755219,377.613037 452.880219,388.883850 
	C483.977295,405.475067 516.293457,405.633057 548.110291,391.332703 
	C571.006348,381.041840 584.535095,362.694061 584.842773,336.988037 
	C585.381042,292.018250 585.032166,247.037567 584.997314,202.061478 
	C584.991760,194.861282 582.615295,192.575363 575.291565,192.501572 
	C566.463745,192.412613 557.634460,192.474060 548.805786,192.479233 
	C537.924805,192.485596 536.266846,194.105591 536.264526,204.813599 
	C536.257202,238.629028 536.273438,272.444458 536.253479,306.259888 
	C536.248535,314.587524 536.535278,322.941254 535.984924,331.236359 
	C535.226990,342.660156 529.517517,351.055481 518.669861,355.316772 
	C508.521973,359.303192 498.060425,359.339447 487.880676,355.719879 
	C476.949341,351.833099 470.634644,343.520935 470.117859,332.049072 
	C469.474213,317.760223 469.975616,303.419769 470.723053,288.977600 
	C513.018433,272.856903 533.185181,226.239029 515.742554,184.909546 
	C498.445770,143.925674 450.771545,125.581383 410.194489,144.547043 
	C390.224915,153.880798 376.353973,169.206924 369.299255,190.066422 
	C360.654541,215.627243 365.330872,239.539688 380.313110,262.036438 
	C367.597321,274.710266 354.976959,287.272461 342.378601,299.856720 
	C338.961975,303.269501 335.451721,306.608704 332.276001,310.236877 
	C329.010803,313.967224 328.677277,318.383484 330.667938,322.857544 
	C332.611938,327.226654 336.386017,330.088226 340.864532,329.493652 
	C344.649536,328.991180 348.889954,327.030914 351.632812,324.376648 
	C367.066132,309.441772 382.107544,294.101959 396.595428,279.588654 
	C405.058380,283.283386 412.924164,286.717377 420.899139,291.064087 
z"/>
<path fill="#FDFFFF" opacity="1.000000" stroke="none" 
	d="
M469.982574,289.101624 
	C469.975616,303.419769 469.474213,317.760223 470.117859,332.049072 
	C470.634644,343.520935 476.949341,351.833099 487.880676,355.719879 
	C498.060425,359.339447 508.521973,359.303192 518.669861,355.316772 
	C529.517517,351.055481 535.226990,342.660156 535.984924,331.236359 
	C536.535278,322.941254 536.248535,314.587524 536.253479,306.259888 
	C536.273438,272.444458 536.257202,238.629028 536.264526,204.813599 
	C536.266846,194.105591 537.924805,192.485596 548.805786,192.479233 
	C557.634460,192.474060 566.463745,192.412613 575.291565,192.501572 
	C582.615295,192.575363 584.991760,194.861282 584.997314,202.061478 
	C585.032166,247.037567 585.381042,292.018250 584.842773,336.988037 
	C584.535095,362.694061 571.006348,381.041840 548.110291,391.332703 
	C516.293457,405.633057 483.977295,405.475067 452.880219,388.883850 
	C431.755219,377.613037 421.207825,359.127289 421.003845,335.038483 
	C420.879730,320.381134 420.928223,305.722260 420.909729,290.133667 
	C420.885803,281.014038 420.851288,272.824829 420.872864,264.122650 
	C420.943604,243.161926 420.935028,222.714127 420.985199,202.266495 
	C421.003174,194.932312 423.214325,192.594955 430.410065,192.517349 
	C440.383453,192.409760 450.359833,192.410309 460.333191,192.521255 
	C467.034821,192.595779 469.373016,194.760971 469.611633,201.497101 
	C469.876251,208.968933 469.680756,216.456451 469.721924,223.936935 
	C469.793243,236.898193 469.892548,249.859299 469.908875,263.296143 
	C469.885925,272.215088 469.934235,280.658356 469.982574,289.101624 
z"/>
<path fill="#FDDE5A" opacity="1.000000" stroke="none" 
	d="
M470.352814,289.039612 
	C469.934235,280.658356 469.885925,272.215088 470.213776,263.160278 
	C480.016174,257.246063 487.080017,249.613678 492.000854,240.092163 
	C501.942200,220.856369 498.875427,196.198776 484.778046,180.275726 
	C469.195465,162.675095 447.001617,156.894135 424.915009,164.682907 
	C404.564880,171.859299 390.157410,191.534256 389.320648,213.290939 
	C388.472473,235.344666 401.060974,255.866348 420.816772,264.635651 
	C420.851288,272.824829 420.885803,281.014038 420.855103,289.677307 
	C412.924164,286.717377 405.058380,283.283386 396.595428,279.588654 
	C382.107544,294.101959 367.066132,309.441772 351.632812,324.376648 
	C348.889954,327.030914 344.649536,328.991180 340.864532,329.493652 
	C336.386017,330.088226 332.611938,327.226654 330.667938,322.857544 
	C328.677277,318.383484 329.010803,313.967224 332.276001,310.236877 
	C335.451721,306.608704 338.961975,303.269501 342.378601,299.856720 
	C354.976959,287.272461 367.597321,274.710266 380.313110,262.036438 
	C365.330872,239.539688 360.654541,215.627243 369.299255,190.066422 
	C376.353973,169.206924 390.224915,153.880798 410.194489,144.547043 
	C450.771545,125.581383 498.445770,143.925674 515.742554,184.909546 
	C533.185181,226.239029 513.018433,272.856903 470.352814,289.039612 
z"/>
<path fill="#0EC0DE" opacity="1.000000" stroke="none" 
	d="
M420.872864,264.122650 
	C401.060974,255.866348 388.472473,235.344666 389.320648,213.290939 
	C390.157410,191.534256 404.564880,171.859299 424.915009,164.682907 
	C447.001617,156.894135 469.195465,162.675095 484.778046,180.275726 
	C498.875427,196.198776 501.942200,220.856369 492.000854,240.092163 
	C487.080017,249.613678 480.016174,257.246063 470.285034,262.684601 
	C469.892548,249.859299 469.793243,236.898193 469.721924,223.936935 
	C469.680756,216.456451 469.876251,208.968933 469.611633,201.497101 
	C469.373016,194.760971 467.034821,192.595779 460.333191,192.521255 
	C450.359833,192.410309 440.383453,192.409760 430.410065,192.517349 
	C423.214325,192.594955 421.003174,194.932312 420.985199,202.266495 
	C420.935028,222.714127 420.943604,243.161926 420.872864,264.122650 
z"/>
</svg>